<svg width="45" height="45" viewBox="0 0 45 45" fill="none" xmlns="http://www.w3.org/2000/svg">
<rect width="45" height="45" fill="#B900F1"/>
<path d="M29 15.4998C29 14.6714 29.6716 13.9998 30.5 13.9998C31.3285 13.9998 32 14.6714 32 15.4998C32 16.3283 31.3285 16.9998 30.5 16.9998C29.6716 16.9998 29 16.3283 29 15.4998Z" fill="white"/>
<path fill-rule="evenodd" clip-rule="evenodd" d="M23 15.8748C19.065 15.8748 15.875 19.0648 15.875 22.9998C15.875 26.9349 19.065 30.1248 23 30.1248C26.9351 30.1248 30.125 26.9349 30.125 22.9998C30.125 19.0648 26.9351 15.8748 23 15.8748ZM18.125 22.9998C18.125 20.3074 20.3076 18.1248 23 18.1248C25.6924 18.1248 27.875 20.3074 27.875 22.9998C27.875 25.6922 25.6924 27.8748 23 27.8748C20.3076 27.8748 18.125 25.6922 18.125 22.9998Z" fill="white"/>
<path fill-rule="evenodd" clip-rule="evenodd" d="M30.8874 9.24935C25.6876 8.66819 20.3125 8.66819 15.1127 9.24935C12.0946 9.58666 9.6581 11.9642 9.30327 14.998C8.68146 20.3144 8.68146 25.6852 9.30327 31.0017C9.6581 34.0355 12.0946 36.413 15.1127 36.7503C20.3125 37.3315 25.6875 37.3315 30.8874 36.7503C33.9055 36.413 36.342 34.0355 36.6968 31.0017C37.3186 25.6852 37.3186 20.3144 36.6968 14.998C36.342 11.9642 33.9055 9.58666 30.8874 9.24935ZM15.3626 11.4854C20.3964 10.9228 25.6037 10.9228 30.6375 11.4854C32.6327 11.7084 34.2309 13.2828 34.4621 15.2593C35.0636 20.4021 35.0636 25.5975 34.4621 30.7403C34.2309 32.7168 32.6327 34.2912 30.6375 34.5142C25.6037 35.0768 20.3964 35.0768 15.3626 34.5142C13.3674 34.2912 11.7692 32.7168 11.538 30.7403C10.9365 25.5975 10.9365 20.4021 11.538 15.2593C11.7692 13.2828 13.3674 11.7084 15.3626 11.4854Z" fill="white"/>
</svg>
