<svg width="40" height="40" viewBox="0 0 40 40" fill="none" xmlns="http://www.w3.org/2000/svg">
<path d="M26.3333 13.2081C26.3333 12.4027 26.9862 11.7498 27.7916 11.7498C28.597 11.7498 29.2499 12.4027 29.2499 13.2081C29.2499 14.0136 28.597 14.6665 27.7916 14.6665C26.9862 14.6665 26.3333 14.0136 26.3333 13.2081Z" fill="white"/>
<path fill-rule="evenodd" clip-rule="evenodd" d="M20.4999 13.5727C16.6742 13.5727 13.5728 16.6741 13.5728 20.4998C13.5728 24.3255 16.6742 27.4269 20.4999 27.4269C24.3256 27.4269 27.427 24.3255 27.427 20.4998C27.427 16.6741 24.3256 13.5727 20.4999 13.5727ZM15.7603 20.4998C15.7603 17.8822 17.8823 15.7602 20.4999 15.7602C23.1175 15.7602 25.2395 17.8822 25.2395 20.4998C25.2395 23.1174 23.1175 25.2394 20.4999 25.2394C17.8823 25.2394 15.7603 23.1174 15.7603 20.4998Z" fill="white"/>
<path fill-rule="evenodd" clip-rule="evenodd" d="M28.1682 7.13128C23.1128 6.56627 17.8871 6.56627 12.8317 7.13128C9.89742 7.45923 7.5286 9.7707 7.18363 12.7202C6.57909 17.889 6.57909 23.1106 7.18363 28.2794C7.5286 31.2289 9.89742 33.5404 12.8317 33.8683C17.8871 34.4333 23.1128 34.4333 28.1682 33.8683C31.1025 33.5404 33.4713 31.2289 33.8162 28.2794C34.4208 23.1106 34.4208 17.889 33.8162 12.7202C33.4713 9.7707 31.1025 7.45923 28.1682 7.13128ZM13.0746 9.30525C17.9686 8.75828 23.0313 8.75828 27.9252 9.30525C29.865 9.52204 31.4188 11.0527 31.6436 12.9743C32.2283 17.9743 32.2283 23.0253 31.6436 28.0253C31.4188 29.9469 29.865 31.4776 27.9252 31.6944C23.0313 32.2413 17.9686 32.2413 13.0746 31.6944C11.1349 31.4776 9.58106 29.9469 9.35632 28.0253C8.77153 23.0253 8.77153 17.9743 9.35632 12.9743C9.58106 11.0527 11.1349 9.52204 13.0746 9.30525Z" fill="white"/>
</svg>
