<svg width="40" height="40" viewBox="0 0 40 40" fill="none" xmlns="http://www.w3.org/2000/svg">
<g clip-path="url(#clip0_41_812)">
<path d="M31.0415 18C31.0415 26.1667 20.1665 33.1667 20.1665 33.1667C20.1665 33.1667 9.2915 26.1667 9.2915 18C9.2915 15.2152 10.4373 12.5445 12.4767 10.5754C14.5162 8.60625 17.2823 7.5 20.1665 7.5C23.0507 7.5 25.8168 8.60625 27.8563 10.5754C29.8957 12.5445 31.0415 15.2152 31.0415 18Z" stroke="white" stroke-width="2.5" stroke-linecap="round" stroke-linejoin="round"/>
<path d="M20.1665 21.5C22.1685 21.5 23.7915 19.933 23.7915 18C23.7915 16.067 22.1685 14.5 20.1665 14.5C18.1645 14.5 16.5415 16.067 16.5415 18C16.5415 19.933 18.1645 21.5 20.1665 21.5Z" stroke="white" stroke-width="2.5" stroke-linecap="round" stroke-linejoin="round"/>
</g>
<defs>
<clipPath id="clip0_41_812">
<rect width="40" height="40" fill="white"/>
</clipPath>
</defs>
</svg>
