<svg width="148" height="104" viewBox="0 0 148 104" fill="none" xmlns="http://www.w3.org/2000/svg">
<g clip-path="url(#clip0_41_1474)">
<path d="M18.3184 62.8187C19.0748 40.1279 32.487 20.1791 52.0172 12.5402C73.1936 4.25722 97.5233 12.0274 111.449 31.8026" stroke="url(#paint0_linear_41_1474)" stroke-width="3.48235" stroke-miterlimit="10" stroke-dasharray="17.41 17.41"/>
<path d="M114.443 28.7525L116.791 26.8325L117.988 40.3738L104.979 36.4927L107.325 34.5749" stroke="white" stroke-width="3.48235" stroke-miterlimit="10"/>
<path d="M4.34304 98.5734H6.19576V99.8805H4.34304V103.657H2.90796V94.5098H6.70448V95.8157H4.34304V98.5734Z" fill="#B0B0B0"/>
<path d="M11.6139 103.656C11.5961 103.595 11.5795 103.538 11.5617 103.486C11.5439 103.433 11.5295 103.368 11.5162 103.29C11.5028 103.211 11.4939 103.112 11.4895 102.99C11.4851 102.867 11.4828 102.715 11.4828 102.532V101.095C11.4828 100.668 11.4084 100.368 11.2607 100.193C11.113 100.02 10.873 99.9316 10.5431 99.9316H10.0478V103.656H8.61267V94.5098H10.7786C11.5262 94.5098 12.0682 94.6844 12.4025 95.0326C12.7369 95.3808 12.9046 95.9081 12.9046 96.6133V97.3319C12.9046 98.273 12.5914 98.8915 11.9649 99.1874C12.3303 99.3354 12.5802 99.5779 12.7146 99.9127C12.849 100.249 12.9168 100.656 12.9168 101.134V102.545C12.9168 102.772 12.9257 102.97 12.9435 103.14C12.9612 103.31 13.0046 103.481 13.0734 103.656H11.6139ZM10.0478 95.8168V98.6257H10.6087C10.8775 98.6257 11.0896 98.5556 11.2418 98.4165C11.394 98.2775 11.4706 98.025 11.4706 97.659V96.7579C11.4706 96.4264 11.4117 96.1873 11.294 96.0393C11.1763 95.8914 10.9919 95.8168 10.7397 95.8168H10.0478Z" fill="#B0B0B0"/>
<path d="M16.349 96.7056C16.349 95.9658 16.5356 95.3974 16.9099 95.0003C17.2842 94.6043 17.823 94.4062 18.5272 94.4062C19.2314 94.4062 19.7712 94.6043 20.1444 95.0003C20.5187 95.3974 20.7053 95.9647 20.7053 96.7056V101.462C20.7053 102.203 20.5176 102.772 20.1444 103.168C19.7701 103.565 19.2314 103.763 18.5272 103.763C17.823 103.763 17.2831 103.565 16.9099 103.168C16.5356 102.772 16.349 102.203 16.349 101.462V96.7056ZM17.7841 101.552C17.7841 101.884 17.8518 102.116 17.9862 102.251C18.1206 102.387 18.3017 102.453 18.5283 102.453C18.7549 102.453 18.9348 102.386 19.0703 102.251C19.2047 102.116 19.2725 101.883 19.2725 101.552V96.6133C19.2725 96.2818 19.2047 96.0493 19.0703 95.9147C18.9348 95.7801 18.7549 95.7122 18.5283 95.7122C18.3017 95.7122 18.1217 95.7801 17.9862 95.9147C17.8518 96.0504 17.7841 96.2829 17.7841 96.6133V101.552Z" fill="#B0B0B0"/>
<path d="M26.5856 101.004L27.5641 94.5098H29.5601V103.656H28.2028V97.0972L27.2109 103.656H25.8536L24.7839 97.1884V103.656H23.531V94.5098H25.527L26.5856 101.004Z" fill="#B0B0B0"/>
<path d="M37.1488 94.5098H38.5839V103.656H37.1488V94.5098Z" fill="#B0B0B0"/>
<path d="M42.2372 94.5098H44.5075C45.2295 94.5098 45.7671 94.7011 46.1192 95.0849C46.4713 95.4687 46.6479 96.0304 46.6479 96.7702V101.396C46.6479 102.136 46.4713 102.698 46.1192 103.081C45.7671 103.465 45.2295 103.656 44.5075 103.656H42.2372V94.5098ZM43.6723 95.8168V102.35H44.4809C44.7075 102.35 44.8852 102.284 45.0163 102.154C45.1462 102.023 45.2118 101.793 45.2118 101.461V96.7045C45.2118 96.3742 45.1462 96.1428 45.0163 96.0115C44.8863 95.8814 44.7075 95.8157 44.4809 95.8157H43.6723V95.8168Z" fill="#B0B0B0"/>
<path d="M51.6039 98.3643H53.5744V99.6713H51.6039V102.35H54.0831V103.657H50.1688V94.5098H54.0831V95.8157H51.6039V98.3643Z" fill="#B0B0B0"/>
<path d="M62.2238 103.656H60.7754L60.5277 101.996H58.7661L58.5184 103.656H57.201L58.6628 94.5098H60.7632L62.2238 103.656ZM58.9494 100.756H60.3322L59.6402 96.1305L58.9494 100.756Z" fill="#B0B0B0"/>
<path d="M67.2759 94.5098H71.7122V95.8157H70.2116V103.656H68.7765V95.8157H67.2759V94.5098Z" fill="#B0B0B0"/>
<path d="M74.4807 96.7056C74.4807 95.9658 74.6673 95.3974 75.0416 95.0003C75.416 94.6043 75.9547 94.4062 76.6589 94.4062C77.3631 94.4062 77.9029 94.6043 78.2761 95.0003C78.6504 95.3974 78.837 95.9647 78.837 96.7056V101.462C78.837 102.203 78.6493 102.772 78.2761 103.168C77.9018 103.565 77.3631 103.763 76.6589 103.763C75.9547 103.763 75.4148 103.565 75.0416 103.168C74.6673 102.772 74.4807 102.203 74.4807 101.462V96.7056ZM75.9169 101.552C75.9169 101.884 75.9847 102.116 76.1191 102.251C76.2535 102.387 76.4345 102.453 76.6611 102.453C76.8877 102.453 77.0676 102.386 77.2031 102.251C77.3375 102.116 77.4053 101.883 77.4053 101.552V96.6133C77.4053 96.2818 77.3375 96.0493 77.2031 95.9147C77.0676 95.7801 76.8877 95.7122 76.6611 95.7122C76.4345 95.7122 76.2546 95.7801 76.1191 95.9147C75.9847 96.0504 75.9169 96.2829 75.9169 96.6133V101.552Z" fill="#B0B0B0"/>
<path d="M88.4749 94.5098C89.2224 94.5098 89.7645 94.6844 90.0988 95.0326C90.4332 95.3808 90.6009 95.9081 90.6009 96.6133V96.9404C90.6009 97.4109 90.5265 97.798 90.3787 98.1028C90.231 98.4076 89.9955 98.6346 89.6745 98.7825C90.0655 98.9305 90.3421 99.1719 90.5031 99.5078C90.6642 99.8426 90.7442 100.255 90.7442 100.743V101.487C90.7442 102.192 90.5609 102.73 90.1966 103.101C89.8311 103.471 89.288 103.656 88.566 103.656H86.309V94.5098H88.4749ZM87.7452 95.8168V98.2341H88.3061C88.5749 98.2341 88.787 98.164 88.9392 98.025C89.0914 97.8859 89.168 97.6334 89.168 97.2674V96.7579C89.168 96.4264 89.1091 96.1873 88.9914 96.0393C88.8737 95.8914 88.6893 95.8168 88.4371 95.8168H87.7452ZM87.7452 99.5401V102.349H88.5671C88.8104 102.349 88.9959 102.283 89.1214 102.153C89.2469 102.022 89.3102 101.787 89.3102 101.448V100.651C89.3102 100.224 89.238 99.9327 89.0947 99.7759C88.9514 99.619 88.7137 99.5412 88.3838 99.5412H87.7452V99.5401Z" fill="#B0B0B0"/>
<path d="M95.586 94.5098V101.566C95.586 101.897 95.6537 102.128 95.7881 102.258C95.9225 102.389 96.1036 102.453 96.3302 102.453C96.5568 102.453 96.7367 102.388 96.8722 102.258C97.0066 102.128 97.0744 101.896 97.0744 101.566V94.5098H98.4306V101.475C98.4306 102.215 98.2506 102.784 97.8896 103.18C97.5286 103.576 96.9955 103.775 96.2913 103.775C95.5871 103.775 95.0539 103.577 94.6929 103.18C94.3319 102.784 94.1509 102.215 94.1509 101.475V94.5098H95.586Z" fill="#B0B0B0"/>
<path d="M101.835 96.7056C101.835 95.9658 102.012 95.3974 102.364 95.0003C102.716 94.6043 103.245 94.4062 103.949 94.4062C104.653 94.4062 105.182 94.6043 105.534 95.0003C105.886 95.3974 106.063 95.9647 106.063 96.7056V96.9926H104.705V96.6133C104.705 96.2818 104.642 96.0493 104.516 95.9147C104.39 95.7801 104.214 95.7122 103.988 95.7122C103.761 95.7122 103.586 95.7801 103.459 95.9147C103.332 96.0504 103.27 96.2829 103.27 96.6133C103.27 96.927 103.34 97.2039 103.479 97.4431C103.618 97.6823 103.792 97.9092 104.001 98.1228C104.21 98.3364 104.433 98.55 104.673 98.7635C104.912 98.9771 105.136 99.2096 105.345 99.4632C105.554 99.7158 105.727 100.004 105.867 100.325C106.006 100.648 106.076 101.026 106.076 101.462C106.076 102.203 105.895 102.772 105.534 103.168C105.173 103.565 104.64 103.763 103.935 103.763C103.231 103.763 102.698 103.565 102.337 103.168C101.976 102.772 101.796 102.203 101.796 101.462V100.9H103.152V101.553C103.152 101.885 103.22 102.115 103.355 102.246C103.489 102.377 103.67 102.442 103.897 102.442C104.123 102.442 104.303 102.377 104.439 102.246C104.573 102.115 104.641 101.885 104.641 101.553C104.641 101.24 104.571 100.964 104.432 100.724C104.293 100.484 104.119 100.258 103.91 100.044C103.701 99.8303 103.477 99.6179 103.238 99.4043C102.998 99.1907 102.775 98.9582 102.566 98.7046C102.357 98.4521 102.183 98.1651 102.044 97.8425C101.905 97.5199 101.835 97.1405 101.835 96.7056Z" fill="#B0B0B0"/>
<path d="M109.324 96.7056C109.324 95.9658 109.5 95.3974 109.852 95.0003C110.204 94.6043 110.733 94.4062 111.437 94.4062C112.142 94.4062 112.67 94.6043 113.022 95.0003C113.374 95.3974 113.551 95.9647 113.551 96.7056V96.9926H112.194V96.6133C112.194 96.2818 112.13 96.0493 112.005 95.9147C111.878 95.7801 111.703 95.7122 111.476 95.7122C111.25 95.7122 111.074 95.7801 110.947 95.9147C110.821 96.0504 110.759 96.2829 110.759 96.6133C110.759 96.927 110.829 97.2039 110.967 97.4431C111.106 97.6823 111.281 97.9092 111.49 98.1228C111.698 98.3364 111.922 98.55 112.161 98.7635C112.4 98.9771 112.625 99.2096 112.834 99.4632C113.042 99.7158 113.216 100.004 113.356 100.325C113.494 100.648 113.564 101.026 113.564 101.462C113.564 102.203 113.383 102.772 113.022 103.168C112.661 103.565 112.128 103.763 111.424 103.763C110.72 103.763 110.187 103.565 109.826 103.168C109.465 102.772 109.285 102.203 109.285 101.462V100.9H110.641V101.553C110.641 101.885 110.709 102.115 110.843 102.246C110.977 102.377 111.158 102.442 111.385 102.442C111.612 102.442 111.792 102.377 111.927 102.246C112.062 102.115 112.129 101.885 112.129 101.553C112.129 101.24 112.059 100.964 111.92 100.724C111.782 100.484 111.607 100.258 111.398 100.044C111.19 99.8303 110.965 99.6179 110.726 99.4043C110.487 99.1907 110.263 98.9582 110.054 98.7046C109.846 98.4521 109.671 98.1651 109.532 97.8425C109.394 97.5199 109.324 97.1405 109.324 96.7056Z" fill="#B0B0B0"/>
<path d="M116.995 94.5098H118.431V103.656H116.995V94.5098Z" fill="#B0B0B0"/>
<path d="M123.362 97.0316V103.656H122.071V94.5098H123.871L125.345 99.985V94.5098H126.623V103.656H125.15L123.362 97.0316Z" fill="#B0B0B0"/>
<path d="M131.698 98.3643H133.669V99.6713H131.698V102.35H134.178V103.657H130.263V94.5098H134.178V95.8157H131.698V98.3643Z" fill="#B0B0B0"/>
<path d="M137.491 96.7056C137.491 95.9658 137.668 95.3974 138.02 95.0003C138.372 94.6043 138.901 94.4062 139.605 94.4062C140.309 94.4062 140.838 94.6043 141.19 95.0003C141.542 95.3974 141.719 95.9647 141.719 96.7056V96.9926H140.361V96.6133C140.361 96.2818 140.298 96.0493 140.172 95.9147C140.047 95.7801 139.87 95.7122 139.644 95.7122C139.417 95.7122 139.242 95.7801 139.115 95.9147C138.989 96.0504 138.926 96.2829 138.926 96.6133C138.926 96.927 138.995 97.2039 139.135 97.4431C139.274 97.6823 139.448 97.9092 139.657 98.1228C139.866 98.3364 140.09 98.55 140.329 98.7635C140.568 98.9771 140.792 99.2096 141.001 99.4632C141.21 99.7158 141.383 100.004 141.523 100.325C141.662 100.648 141.732 101.026 141.732 101.462C141.732 102.203 141.551 102.772 141.191 103.168C140.83 103.565 140.297 103.763 139.593 103.763C138.888 103.763 138.355 103.565 137.994 103.168C137.633 102.772 137.452 102.203 137.452 101.462V100.9H138.809V101.553C138.809 101.885 138.877 102.115 139.012 102.246C139.146 102.377 139.327 102.442 139.554 102.442C139.78 102.442 139.96 102.377 140.096 102.246C140.23 102.115 140.298 101.885 140.298 101.553C140.298 101.24 140.228 100.964 140.089 100.724C139.949 100.484 139.776 100.258 139.567 100.044C139.358 99.8303 139.134 99.6179 138.895 99.4043C138.655 99.1907 138.432 98.9582 138.223 98.7046C138.014 98.4521 137.84 98.1651 137.701 97.8425C137.561 97.5199 137.491 97.1405 137.491 96.7056Z" fill="#B0B0B0"/>
<path d="M143.759 96.7056C143.759 95.9658 143.936 95.3974 144.288 95.0003C144.64 94.6043 145.169 94.4062 145.873 94.4062C146.577 94.4062 147.106 94.6043 147.458 95.0003C147.81 95.3974 147.987 95.9647 147.987 96.7056V96.9926H146.629V96.6133C146.629 96.2818 146.566 96.0493 146.441 95.9147C146.315 95.7801 146.138 95.7122 145.912 95.7122C145.685 95.7122 145.51 95.7801 145.383 95.9147C145.258 96.0504 145.194 96.2829 145.194 96.6133C145.194 96.927 145.263 97.2039 145.403 97.4431C145.542 97.6823 145.716 97.9092 145.925 98.1228C146.134 98.3364 146.358 98.55 146.597 98.7635C146.836 98.9771 147.06 99.2096 147.269 99.4632C147.478 99.7158 147.651 100.004 147.791 100.325C147.93 100.648 148 101.026 148 101.462C148 102.203 147.819 102.772 147.459 103.168C147.098 103.565 146.565 103.763 145.861 103.763C145.157 103.763 144.623 103.565 144.262 103.168C143.901 102.772 143.72 102.203 143.72 101.462V100.9H145.078V101.553C145.078 101.885 145.145 102.115 145.28 102.246C145.414 102.377 145.595 102.442 145.822 102.442C146.048 102.442 146.228 102.377 146.364 102.246C146.498 102.115 146.566 101.885 146.566 101.553C146.566 101.24 146.496 100.964 146.357 100.724C146.217 100.484 146.044 100.258 145.835 100.044C145.626 99.8303 145.402 99.6179 145.163 99.4043C144.923 99.1907 144.7 98.9582 144.491 98.7046C144.282 98.4521 144.108 98.1651 143.969 97.8425C143.829 97.5199 143.759 97.1405 143.759 96.7056Z" fill="#B0B0B0"/>
<path d="M25.064 54.1133H18.3185V87.8926H25.064V54.1133Z" fill="white"/>
<path d="M55.7949 67.6241V87.891H49.0494V67.6241C49.0494 63.8931 46.0293 60.8684 42.3038 60.8684C42.3038 60.8684 41.463 60.9029 41.4663 60.9196C38.1363 61.3323 35.5583 64.1778 35.5583 67.6241V87.891H28.8127V67.6241C28.8127 65.1634 29.4703 62.8552 30.6177 60.8684C31.273 59.7338 32.0872 58.7048 33.0314 57.8104C33.7944 57.0874 34.6419 56.4522 35.5583 55.9205C36.6024 55.3153 37.7354 54.8459 38.9338 54.5377C40.0102 54.2596 41.1398 54.1128 42.3038 54.1128C44.7608 54.1128 47.0656 54.7702 49.0494 55.9205C51.0976 57.1063 52.8048 58.816 53.99 60.8684C55.1374 62.8563 55.7949 65.1634 55.7949 67.6241Z" fill="white"/>
<path d="M73.8712 74.3285C77.2012 73.9158 79.7793 71.0703 79.7793 67.6241V54.1128H86.5248V87.8921H79.7793V79.3277C78.7352 79.934 77.6011 80.4023 76.4037 80.7115C75.3263 80.9885 74.1978 81.1354 73.0337 81.1354C70.5767 81.1354 68.2719 80.4779 66.2882 79.3277V87.8921H59.5426V54.1128H66.2882V67.6241C66.2882 71.3551 69.3083 74.3797 73.0337 74.3797" fill="white"/>
<path d="M146.181 67.6242C144.995 65.5718 143.288 63.8621 141.24 62.6762C139.256 61.526 136.951 60.8686 134.495 60.8686C133.33 60.8686 132.201 61.0154 131.125 61.2935C129.926 61.6028 128.793 62.0711 127.749 62.6762V54.1118H121.003V74.3787C121.003 76.8394 121.661 79.1476 122.808 81.1344C123.464 82.269 124.278 83.298 125.222 84.1924C125.985 84.9154 126.833 85.5506 127.749 86.0824C128.794 86.6875 129.926 87.1569 131.125 87.4651C132.201 87.7432 133.33 87.89 134.495 87.89C136.951 87.89 139.256 87.2326 141.24 86.0824C143.288 84.8965 144.995 83.1868 146.181 81.1344C147.328 79.1465 147.986 76.8394 147.986 74.3787C147.986 71.9192 147.328 69.6121 146.181 67.6242ZM133.657 81.0843C130.327 80.6716 127.749 77.8261 127.749 74.3799C127.749 70.9325 130.327 68.0881 133.657 67.6754C133.654 67.6587 134.41 67.6242 134.41 67.6242C138.129 67.6242 141.212 70.6032 141.24 74.3276C141.269 78.0819 138.238 81.1355 134.495 81.1355" fill="white"/>
<path d="M103.763 81.1365C107.49 81.1365 110.509 78.1118 110.509 74.3808V54.1128H117.255V74.3797C117.255 76.8404 116.598 79.1486 115.45 81.1354C114.266 83.1866 112.557 84.8975 110.509 86.0833C108.524 87.2336 106.22 87.891 103.763 87.891C102.599 87.891 101.471 87.7442 100.393 87.4672C99.1961 87.1579 98.062 86.6896 97.0179 86.0833C96.1015 85.5527 95.2551 84.9175 94.491 84.1934C93.5468 83.299 92.7315 82.2689 92.0773 81.1354C90.9288 79.1475 90.2723 76.8404 90.2723 74.3797V54.1128H97.0179V74.3797C97.0179 77.8259 99.5959 80.6715 102.926 81.0842" fill="white"/>
</g>
<defs>
<linearGradient id="paint0_linear_41_1474" x1="17.7637" y1="35.7716" x2="111.903" y2="35.7716" gradientUnits="userSpaceOnUse">
<stop stop-color="white" stop-opacity="0"/>
<stop offset="0.7" stop-color="white"/>
</linearGradient>
<clipPath id="clip0_41_1474">
<rect width="148" height="103.774" fill="white"/>
</clipPath>
</defs>
</svg>
