<svg width="40" height="40" viewBox="0 0 40 40" fill="none" xmlns="http://www.w3.org/2000/svg">
<g clip-path="url(#clip0_41_808)">
<path d="M20.1666 24.9992C22.836 24.9992 24.9999 22.8352 24.9999 20.1659C24.9999 17.4965 22.836 15.3325 20.1666 15.3325C17.4972 15.3325 15.3333 17.4965 15.3333 20.1659C15.3333 22.8352 17.4972 24.9992 20.1666 24.9992Z" stroke="white" stroke-width="2.5" stroke-linecap="round" stroke-linejoin="round"/>
<path d="M24.9999 15.3327V21.3744C24.9999 22.3358 25.3818 23.2579 26.0617 23.9377C26.7415 24.6175 27.6635 24.9994 28.6249 24.9994C29.5863 24.9994 30.5084 24.6175 31.1882 23.9377C31.868 23.2579 32.2499 22.3358 32.2499 21.3744V20.1661C32.2498 17.4389 31.327 14.792 29.6318 12.6557C27.9366 10.5195 25.5685 9.01948 22.9127 8.39969C20.2569 7.7799 17.4695 8.07675 15.0038 9.24198C12.5381 10.4072 10.5391 12.3723 9.33178 14.8177C8.12449 17.263 7.77993 20.0449 8.35413 22.711C8.92833 25.377 10.3875 27.7704 12.4944 29.502C14.6014 31.2336 17.2321 32.2015 19.9588 32.2484C22.6856 32.2953 25.3481 31.4184 27.5133 29.7602" stroke="white" stroke-width="2.5" stroke-linecap="round" stroke-linejoin="round"/>
</g>
<defs>
<clipPath id="clip0_41_808">
<rect width="40" height="40" fill="white"/>
</clipPath>
</defs>
</svg>
