<svg width="45" height="45" viewBox="0 0 45 45" fill="none" xmlns="http://www.w3.org/2000/svg">
<g clip-path="url(#clip0_41_944)">
<rect width="45" height="45" fill="#B900F1"/>
<path d="M23 27.8103C25.7614 27.8103 28 25.5112 28 22.6752C28 19.8391 25.7614 17.54 23 17.54C20.2386 17.54 18 19.8391 18 22.6752C18 25.5112 20.2386 27.8103 23 27.8103Z" stroke="white" stroke-width="2.7027" stroke-linecap="round" stroke-linejoin="round"/>
<path d="M28 17.5398V23.9587C28 24.9802 28.3951 25.9598 29.0984 26.682C29.8016 27.4043 30.7555 27.8101 31.75 27.8101C32.7446 27.8101 33.6984 27.4043 34.4017 26.682C35.1049 25.9598 35.5 24.9802 35.5 23.9587V22.6749C35.4998 19.7775 34.5453 16.9653 32.7916 14.6956C31.0379 12.426 28.5882 10.8323 25.8408 10.1738C23.0934 9.51534 20.2099 9.83073 17.6592 11.0687C15.1085 12.3067 13.0405 14.3945 11.7916 16.9925C10.5427 19.5906 10.1862 22.5462 10.7802 25.3787C11.3742 28.2112 12.8837 30.7541 15.0633 32.5938C17.2429 34.4335 19.9643 35.4619 22.7851 35.5117C25.6059 35.5615 28.3601 34.6298 30.6 32.8682" stroke="white" stroke-width="2.7027" stroke-linecap="round" stroke-linejoin="round"/>
</g>
<defs>
<clipPath id="clip0_41_944">
<rect width="45" height="45" fill="white"/>
</clipPath>
</defs>
</svg>
