<svg width="40" height="40" viewBox="0 0 40 40" fill="none" xmlns="http://www.w3.org/2000/svg">
<g clip-path="url(#clip0_41_810)">
<path d="M23.7168 12.9168C24.897 13.1471 25.9817 13.7243 26.832 14.5746C27.6822 15.4249 28.2595 16.5095 28.4897 17.6897M23.7168 8.0835C26.1688 8.3559 28.4554 9.45396 30.201 11.1974C31.9466 12.9408 33.0476 15.226 33.3231 17.6777M32.1147 27.3202V30.9452C32.1161 31.2817 32.0472 31.6148 31.9123 31.9231C31.7775 32.2315 31.5798 32.5082 31.3318 32.7358C31.0838 32.9633 30.7911 33.1365 30.4723 33.2443C30.1535 33.3521 29.8157 33.3921 29.4806 33.3618C25.7623 32.9578 22.1907 31.6873 19.0526 29.6522C16.1331 27.797 13.6578 25.3218 11.8026 22.4022C9.76053 19.25 8.48969 15.6609 8.09306 11.926C8.06286 11.5919 8.10258 11.2551 8.20966 10.9371C8.31675 10.6192 8.48887 10.327 8.71507 10.0792C8.94126 9.83141 9.21657 9.63344 9.52347 9.49788C9.83037 9.36232 10.1621 9.29215 10.4976 9.29183H14.1226C14.7091 9.28606 15.2776 9.49372 15.7222 9.8761C16.1668 10.2585 16.4572 10.7895 16.5393 11.3702C16.6923 12.5302 16.9761 13.6693 17.3851 14.7656C17.5477 15.1981 17.5829 15.6681 17.4865 16.12C17.3902 16.5719 17.1663 16.9866 16.8414 17.3152L15.3068 18.8497C17.0269 21.8749 19.5317 24.3796 22.5568 26.0997L24.0914 24.5652C24.4199 24.2403 24.8347 24.0164 25.2866 23.92C25.7385 23.8237 26.2085 23.8588 26.641 24.0214C27.7373 24.4305 28.8763 24.7142 30.0364 24.8672C30.6234 24.9501 31.1594 25.2457 31.5426 25.698C31.9258 26.1502 32.1294 26.7276 32.1147 27.3202Z" stroke="white" stroke-width="2.5" stroke-linecap="round" stroke-linejoin="round"/>
</g>
<defs>
<clipPath id="clip0_41_810">
<rect width="40" height="40" fill="white"/>
</clipPath>
</defs>
</svg>
