<svg width="45" height="45" viewBox="0 0 45 45" fill="none" xmlns="http://www.w3.org/2000/svg">
<g clip-path="url(#clip0_41_946)">
<rect width="45" height="45" fill="#B900F1"/>
<path d="M26.6726 14.973C27.8936 15.2177 29.0156 15.8309 29.8952 16.7343C30.7748 17.6377 31.3719 18.7901 31.6101 20.044M26.6726 9.83789C29.2092 10.1273 31.5746 11.2939 33.3804 13.1462C35.1863 14.9985 36.3252 17.4263 36.6101 20.0311M35.3601 30.2757V34.1271C35.3616 34.4846 35.2903 34.8385 35.1508 35.1661C35.0113 35.4937 34.8068 35.7878 34.5502 36.0295C34.2937 36.2712 33.9909 36.4552 33.6611 36.5697C33.3313 36.6843 32.9819 36.7268 32.6351 36.6946C28.7887 36.2654 25.0939 34.9155 21.8476 32.7534C18.8274 30.7824 16.2668 28.1526 14.3476 25.0507C12.2351 21.7016 10.9204 17.8885 10.5101 13.9203C10.4789 13.5653 10.52 13.2075 10.6308 12.8697C10.7416 12.5319 10.9196 12.2215 11.1536 11.9582C11.3876 11.695 11.6724 11.4846 11.9899 11.3406C12.3074 11.1966 12.6506 11.122 12.9976 11.1217H16.7476C17.3543 11.1155 17.9424 11.3362 18.4023 11.7424C18.8623 12.1487 19.1627 12.7129 19.2476 13.3298C19.4059 14.5623 19.6995 15.7725 20.1226 16.9372C20.2908 17.3967 20.3272 17.8961 20.2275 18.3762C20.1278 18.8563 19.8962 19.297 19.5601 19.646L17.9726 21.2764C19.7521 24.4904 22.3432 27.1516 25.4726 28.9791L27.0601 27.3487C27.4 27.0035 27.8291 26.7657 28.2965 26.6633C28.764 26.5609 29.2502 26.5983 29.6976 26.771C30.8317 27.2056 32.0101 27.5071 33.2101 27.6696C33.8174 27.7576 34.3719 28.0717 34.7683 28.5522C35.1647 29.0327 35.3754 29.6461 35.3601 30.2757Z" stroke="white" stroke-width="2.7027" stroke-linecap="round" stroke-linejoin="round"/>
</g>
<defs>
<clipPath id="clip0_41_946">
<rect width="45" height="45" fill="white"/>
</clipPath>
</defs>
</svg>
