<svg width="40" height="40" viewBox="0 0 40 40" fill="none" xmlns="http://www.w3.org/2000/svg">
<path d="M14.6252 12.1229C14.892 12.13 15.1878 12.1444 15.4692 12.7692C15.6559 13.185 15.9702 13.9507 16.2263 14.5744C16.4256 15.0597 16.5896 15.459 16.6307 15.5408C16.7244 15.7274 16.7821 15.9428 16.6595 16.1941C16.6451 16.2237 16.6314 16.2521 16.6182 16.2794C16.5199 16.4835 16.4499 16.6288 16.2844 16.8188C16.2164 16.8969 16.1455 16.9825 16.0749 17.0678C15.9508 17.2179 15.8274 17.367 15.7217 17.4723C15.5341 17.6588 15.3393 17.86 15.5557 18.2334C15.7722 18.6067 16.5297 19.8346 17.6479 20.8255C18.85 21.8957 19.8954 22.3467 20.4238 22.5747C20.5264 22.619 20.6095 22.6549 20.6705 22.6852C21.0457 22.8719 21.2693 22.8431 21.4857 22.5919C21.7022 22.3405 22.4235 21.5004 22.6761 21.127C22.9214 20.7537 23.1738 20.8112 23.5202 20.9404C23.8664 21.0696 25.7132 21.9743 26.0883 22.161C26.1624 22.1979 26.2318 22.2311 26.2961 22.262C26.5571 22.3871 26.7345 22.4722 26.8097 22.599C26.9035 22.757 26.9035 23.5037 26.5933 24.3797C26.2759 25.2557 24.7465 26.0958 24.0539 26.1604C23.9884 26.1666 23.9231 26.1745 23.856 26.1826C23.2213 26.2594 22.4156 26.3569 19.5451 25.227C16.0081 23.8361 13.6733 20.3851 13.2012 19.6874C13.164 19.6323 13.1383 19.5944 13.1246 19.576L13.1166 19.5653C12.9018 19.278 11.5879 17.5199 11.5879 15.706C11.5879 13.9705 12.4429 13.067 12.8328 12.6549C12.8575 12.6288 12.8803 12.6046 12.901 12.5824C13.2472 12.209 13.6513 12.1157 13.9037 12.1157C14.1563 12.1157 14.4088 12.1157 14.6252 12.1229Z" fill="white"/>
<path fill-rule="evenodd" clip-rule="evenodd" d="M4.85175 32.7752C4.73244 33.2083 5.1269 33.608 5.56155 33.4945L12.2806 31.7395C14.4015 32.8883 16.7894 33.4986 19.2206 33.4986H19.2278C27.2282 33.4986 33.7498 27.0148 33.7498 19.0447C33.7498 15.1817 32.2419 11.5484 29.5007 8.81982C26.7594 6.09136 23.1162 4.5835 19.2277 4.5835C11.2274 4.5835 4.70581 11.0673 4.70581 19.0376C4.7049 21.5731 5.37416 24.0642 6.64639 26.2609L4.85175 32.7752ZM8.75532 26.8419C8.9111 26.2764 8.83328 25.6721 8.53933 25.1646C7.45994 23.3009 6.89254 21.1873 6.89331 19.0376C6.89331 12.2858 12.4252 6.771 19.2277 6.771C22.538 6.771 25.6263 8.04993 27.9575 10.3702C30.286 12.688 31.5623 15.7632 31.5623 19.0447C31.5623 25.7963 26.0305 31.3111 19.2278 31.3111H19.2206C17.1549 31.3111 15.1249 30.7924 13.3225 29.8161C12.8346 29.5518 12.2646 29.4828 11.7278 29.623L7.69926 30.6752L8.75532 26.8419Z" fill="white"/>
</svg>
