<svg width="45" height="45" viewBox="0 0 45 45" fill="none" xmlns="http://www.w3.org/2000/svg">
<rect width="45" height="45" fill="#B900F1"/>
<path d="M18.329 15.7548C18.6034 15.7621 18.9077 15.777 19.1972 16.4195C19.3891 16.8473 19.7125 17.6348 19.9759 18.2763C20.1809 18.7755 20.3496 19.1863 20.3918 19.2703C20.4882 19.4623 20.5476 19.6839 20.4215 19.9423C20.4066 19.9728 20.3925 20.002 20.379 20.03C20.2778 20.24 20.2058 20.3895 20.0357 20.5849C19.9657 20.6652 19.8928 20.7533 19.8202 20.841C19.6925 20.9954 19.5656 21.1487 19.4568 21.257C19.2639 21.4489 19.0635 21.6559 19.2861 22.0399C19.5088 22.4239 20.2879 23.6868 21.4381 24.706C22.6746 25.8068 23.7498 26.2708 24.2933 26.5053C24.3988 26.5508 24.4843 26.5877 24.547 26.6189C24.933 26.8109 25.1629 26.7813 25.3855 26.5229C25.6082 26.2643 26.3502 25.4002 26.61 25.0162C26.8622 24.6322 27.1219 24.6913 27.4781 24.8242C27.8342 24.9571 29.7338 25.8877 30.1196 26.0797C30.1959 26.1176 30.2672 26.1519 30.3333 26.1836C30.6018 26.3123 30.7843 26.3998 30.8617 26.5303C30.9581 26.6927 30.9581 27.4608 30.6391 28.3618C30.3126 29.2629 28.7395 30.127 28.0271 30.1934C27.9597 30.1998 27.8926 30.2079 27.8235 30.2163C27.1707 30.2952 26.342 30.3955 23.3895 29.2333C19.7514 27.8027 17.3499 24.2531 16.8644 23.5355C16.826 23.4788 16.7996 23.4398 16.7855 23.4209L16.7773 23.4099C16.5564 23.1143 15.205 21.306 15.205 19.4403C15.205 17.6552 16.0843 16.7259 16.4854 16.302C16.5108 16.2751 16.5343 16.2503 16.5555 16.2274C16.9117 15.8434 17.3273 15.7474 17.5869 15.7474C17.8467 15.7474 18.1064 15.7474 18.329 15.7548Z" fill="white"/>
<path fill-rule="evenodd" clip-rule="evenodd" d="M8.27633 36.9971C8.15361 37.4426 8.55934 37.8538 9.00641 37.737L15.9174 35.9319C18.099 37.1136 20.5551 37.7413 23.0558 37.7413H23.0632C31.2921 37.7413 38.0001 31.0722 38.0001 22.8744C38.0001 18.901 36.4491 15.1639 33.6295 12.3574C30.8099 9.55095 27.0626 8 23.063 8C14.8342 8 8.12622 14.6691 8.12622 22.867C8.12529 25.475 8.81366 28.0373 10.1222 30.2967L8.27633 36.9971ZM12.2914 30.8943C12.4517 30.3127 12.3716 29.6911 12.0693 29.1691C10.959 27.2521 10.3754 25.0782 10.3762 22.867C10.3762 15.9224 16.0661 10.25 23.063 10.25C26.4679 10.25 29.6444 11.5655 32.0422 13.9521C34.4373 16.336 35.7501 19.4992 35.7501 22.8744C35.7501 29.8189 30.0602 35.4913 23.0632 35.4913H23.0558C20.931 35.4913 18.843 34.9577 16.9891 33.9535C16.4873 33.6817 15.901 33.6107 15.3488 33.7549L11.2052 34.8372L12.2914 30.8943Z" fill="white"/>
</svg>
